HIERARCHY
ROOT mixamorig:Hips
{
  OFFSET 0.0 100.0 0.0
  CHANNELS 6 Xposition Yposition Zposition Zrotation Yrotation Xrotation
  JOINT mixamorig:Spine
  {
    OFFSET 0.0 15.0 0.0
    CHANNELS 3 Zrotation Yrotation Xrotation
    JOINT mixamorig:Spine1
    {
      OFFSET 0.0 15.0 0.0
      CHANNELS 3 Zrotation Yrotation Xrotation
      JOINT mixamorig:Spine2
      {
        OFFSET 0.0 15.0 0.0
        CHANNELS 3 Zrotation Yrotation Xrotation
        JOINT mixamorig:Neck
        {
          OFFSET 0.0 15.0 0.0
          CHANNELS 3 Zrotation Yrotation Xrotation
          JOINT mixamorig:Head
          {
            OFFSET 0.0 20.0 0.0
            CHANNELS 3 Zrotation Yrotation Xrotation
          }
        }
        JOINT mixamorig:LeftShoulder
        {
          OFFSET 7.0 10.0 0.0
          CHANNELS 3 Zrotation Yrotation Xrotation
          JOINT mixamorig:LeftArm
          {
            OFFSET 10.0 0.0 0.0
            CHANNELS 3 Zrotation Yrotation Xrotation
            JOINT mixamorig:LeftForeArm
            {
              OFFSET 26.0 0.0 0.0
              CHANNELS 3 Zrotation Yrotation Xrotation
              JOINT mixamorig:LeftHand
              {
                OFFSET 25.0 0.0 0.0
                CHANNELS 3 Zrotation Yrotation Xrotation
              }
            }
          }
        }
        JOINT mixamorig:RightShoulder
        {
          OFFSET -7.0 10.0 0.0
          CHANNELS 3 Zrotation Yrotation Xrotation
          JOINT mixamorig:RightArm
          {
            OFFSET -10.0 0.0 0.0
            CHANNELS 3 Zrotation Yrotation Xrotation
            JOINT mixamorig:RightForeArm
            {
              OFFSET -26.0 0.0 0.0
              CHANNELS 3 Zrotation Yrotation Xrotation
              JOINT mixamorig:RightHand
              {
                OFFSET -25.0 0.0 0.0
                CHANNELS 3 Zrotation Yrotation Xrotation
              }
            }
          }
        }
      }
    }
  }
  JOINT mixamorig:LeftUpLeg
  {
    OFFSET 10.0 -10.0 0.0
    CHANNELS 3 Zrotation Yrotation Xrotation
    JOINT mixamorig:LeftLeg
    {
      OFFSET 0.0 -42.0 0.0
      CHANNELS 3 Zrotation Yrotation Xrotation
      JOINT mixamorig:LeftFoot
      {
        OFFSET 0.0 -45.0 0.0
        CHANNELS 3 Zrotation Yrotation Xrotation
        JOINT mixamorig:LeftToeBase
        {
          OFFSET 0.0 0.0 14.0
          CHANNELS 3 Zrotation Yrotation Xrotation
        }
      }
    }
  }
  JOINT mixamorig:RightUpLeg
  {
    OFFSET -10.0 -10.0 0.0
    CHANNELS 3 Zrotation Yrotation Xrotation
    JOINT mixamorig:RightLeg
    {
      OFFSET 0.0 -42.0 0.0
      CHANNELS 3 Zrotation Yrotation Xrotation
      JOINT mixamorig:RightFoot
      {
        OFFSET 0.0 -45.0 0.0
        CHANNELS 3 Zrotation Yrotation Xrotation
        JOINT mixamorig:RightToeBase
        {
          OFFSET 0.0 0.0 14.0
          CHANNELS 3 Zrotation Yrotation Xrotation
        }
      }
    }
  }
}
MOTION

Frames: 38
Frame Time: 0.033333
0 100 0 0 0 0 0 0 0 0 0 1.1821 0 0 1.4383 0 0 0 0 0 0 0 0 0 0 0 -0 0 0 0 0 0 0 0 0 0 0 0 0 0 0 -0 0 0 0 0 0 0 0 0 6.2307 0 0 0 0 0 0 0 0 -0 0 0 -6.2307 0 0 0 0 0 0
0 100.416 0 0 0 0 0 0 1.0396 0 0 1.9508 0 0 1.9542 0 0 0 0 0 0 0 0 0 0 0 4.5741 0 0 -2.4949 0 0 0 0 0 0 0 0 4.5741 0 0 -2.4949 0 0 0 0 0 5.8215 0 0 9.1585 0 0 0 0 0 0 0 0 -5.8215 0 0 -9.1585 0 0 0 0 0 0
0 100.814 0 0 0 0 0 0 2.0337 0 0 2.6342 0 0 2.3848 0 0 0 0 0 0 0 0 0 0 0 8.9482 0 0 -4.8808 0 0 0 0 0 0 0 0 8.9482 0 0 -4.8808 0 0 0 0 0 11.3886 0 0 11.6861 0 0 0 0 0 0 0 0 -11.3886 0 0 -11.6861 0 0 0 0 0 0
0 101.176 0 0 0 0 0 0 2.9389 0 0 3.2025 0 0 2.7111 0 0 0 0 0 0 0 0 0 0 0 12.9313 0 0 -7.0534 0 0 0 0 0 0 0 0 12.9313 0 0 -7.0534 0 0 0 0 0 16.458 0 0 13.7029 0 0 0 0 0 0 0 0 -16.458 0 0 -13.7029 0 0 0 0 0 0
0 101.486 0 0 0 0 0 0 3.7157 0 0 3.6308 0 0 2.9189 0 0 0 0 0 0 0 0 0 0 0 16.3492 0 0 -8.9177 0 0 0 0 0 0 0 0 16.3492 0 0 -8.9177 0 0 0 0 0 20.8081 0 0 15.1209 0 0 0 0 0 0 0 0 -20.8081 0 0 -15.1209 0 0 0 0 0 0
0 101.732 0 0 0 0 0 0 4.3301 0 0 3.9004 0 0 2.9992 0 0 0 0 0 0 0 0 0 0 0 19.0526 0 0 -10.3923 0 0 0 0 0 0 0 0 19.0526 0 0 -10.3923 0 0 0 0 0 24.2487 0 0 15.8779 0 0 0 0 0 0 0 0 -24.2487 0 0 -15.8779 0 0 0 0 0 0
0 101.902 0 0 0 0 0 0 4.7553 0 0 3.9996 0 0 2.9483 0 0 0 0 0 0 0 0 0 0 0 20.9232 0 0 -11.4127 0 0 0 0 0 0 0 0 20.9232 0 0 -11.4127 0 0 0 0 0 26.6296 0 0 15.9411 0 0 0 0 0 0 0 0 -26.6296 0 0 -15.9411 0 0 0 0 0 0
0 101.989 0 0 0 0 0 0 4.9726 0 0 3.924 0 0 2.7687 0 0 0 0 0 0 0 0 0 0 0 21.8795 0 0 -11.9343 0 0 0 0 0 0 0 0 21.8795 0 0 -11.9343 0 0 0 0 0 27.8466 0 0 15.3075 0 0 0 0 0 0 0 0 -27.8466 0 0 -15.3075 0 0 0 0 0 0
0 101.989 0 0 0 0 0 0 4.9726 0 0 3.6769 0 0 2.468 0 0 0 0 0 0 0 0 0 0 0 21.8795 0 0 -11.9343 0 0 0 0 0 0 0 0 21.8795 0 0 -11.9343 0 0 0 0 0 27.8466 0 0 14.005 0 0 0 0 0 0 0 0 -27.8466 0 0 -14.005 0 0 0 0 0 0
0 101.902 0 0 0 0 0 0 4.7553 0 0 3.269 0 0 2.0594 0 0 0 0 0 0 0 0 0 0 0 20.9232 0 0 -11.4127 0 0 0 0 0 0 0 0 20.9232 0 0 -11.4127 0 0 0 0 0 26.6296 0 0 12.0903 0 0 0 0 0 0 0 0 -26.6296 0 0 -12.0903 0 0 0 0 0 0
0 101.732 0 0 0 0 0 0 4.3301 0 0 2.7183 0 0 1.5609 0 0 0 0 0 0 0 0 0 0 0 19.0526 0 0 -10.3923 0 0 0 0 0 0 0 0 19.0526 0 0 -10.3923 0 0 0 0 0 24.2487 0 0 9.6472 0 0 0 0 0 0 0 0 -24.2487 0 0 -9.6472 0 0 0 0 0 0
0 101.486 0 0 0 0 0 0 3.7157 0 0 2.0488 0 0 0.9941 0 0 0 0 0 0 0 0 0 0 0 16.3492 0 0 -8.9177 0 0 0 0 0 0 0 0 16.3492 0 0 -8.9177 0 0 0 0 0 20.8081 0 0 6.7826 0 0 0 0 0 0 0 0 -20.8081 0 0 -6.7826 0 0 0 0 0 0
0 101.176 0 0 0 0 0 0 2.9389 0 0 1.2898 0 0 0.3839 0 0 0 0 0 0 0 0 0 0 0 12.9313 0 0 -7.0534 0 0 0 0 0 0 0 0 12.9313 0 0 -7.0534 0 0 0 0 0 16.458 0 0 3.6214 0 0 0 0 0 0 0 0 -16.458 0 0 -3.6214 0 0 0 0 0 0
0 100.814 0 0 0 0 0 0 2.0337 0 0 0.4744 0 0 -0.2431 0 0 0 0 0 0 0 0 0 0 0 8.9482 0 0 -4.8808 0 0 0 0 0 0 0 0 8.9482 0 0 -4.8808 0 0 0 0 0 11.3886 0 0 0.302 0 0 0 0 0 0 0 0 -11.3886 0 0 -0.302 0 0 0 0 0 0
0 100.416 0 0 0 0 0 0 1.0396 0 0 -0.3617 0 0 -0.8595 0 0 0 0 0 0 0 0 0 0 0 4.5741 0 0 -2.4949 0 0 0 0 0 0 0 0 4.5741 0 0 -2.4949 0 0 0 0 0 5.8215 0 0 -3.0305 0 0 0 0 0 0 0 0 -5.8215 0 0 3.0305 0 0 0 0 0 0
0 100 0 0 0 0 0 0 0 0 0 -1.1821 0 0 -1.4383 0 0 0 0 0 0 0 0 0 0 0 0 0 0 -0 0 0 0 0 0 0 0 0 0 0 0 -0 0 0 0 0 0 0 0 0 -6.2307 0 0 0 0 0 0 0 0 -0 0 0 6.2307 0 0 0 0 0 0
0 100.416 0 0 0 0 0 0 -1.0396 0 0 -1.9508 0 0 -1.9542 0 0 0 0 0 0 0 0 0 0 0 -4.5741 0 0 2.4949 0 0 0 0 0 0 0 0 -4.5741 0 0 2.4949 0 0 0 0 0 -5.8215 0 0 -9.1585 0 0 0 0 0 0 0 0 5.8215 0 0 9.1585 0 0 0 0 0 0
0 100.814 0 0 0 0 0 0 -2.0337 0 0 -2.6342 0 0 -2.3848 0 0 0 0 0 0 0 0 0 0 0 -8.9482 0 0 4.8808 0 0 0 0 0 0 0 0 -8.9482 0 0 4.8808 0 0 0 0 0 -11.3886 0 0 -11.6861 0 0 0 0 0 0 0 0 11.3886 0 0 11.6861 0 0 0 0 0 0
0 101.176 0 0 0 0 0 0 -2.9389 0 0 -3.2025 0 0 -2.7111 0 0 0 0 0 0 0 0 0 0 0 -12.9313 0 0 7.0534 0 0 0 0 0 0 0 0 -12.9313 0 0 7.0534 0 0 0 0 0 -16.458 0 0 -13.7029 0 0 0 0 0 0 0 0 16.458 0 0 13.7029 0 0 0 0 0 0
0 101.486 0 0 0 0 0 0 -3.7157 0 0 -3.6308 0 0 -2.9189 0 0 0 0 0 0 0 0 0 0 0 -16.3492 0 0 8.9177 0 0 0 0 0 0 0 0 -16.3492 0 0 8.9177 0 0 0 0 0 -20.8081 0 0 -15.1209 0 0 0 0 0 0 0 0 20.8081 0 0 15.1209 0 0 0 0 0 0
0 101.732 0 0 0 0 0 0 -4.3301 0 0 -3.9004 0 0 -2.9992 0 0 0 0 0 0 0 0 0 0 0 -19.0526 0 0 10.3923 0 0 0 0 0 0 0 0 -19.0526 0 0 10.3923 0 0 0 0 0 -24.2487 0 0 -15.8779 0 0 0 0 0 0 0 0 24.2487 0 0 15.8779 0 0 0 0 0 0
0 101.902 0 0 0 0 0 0 -4.7553 0 0 -3.9996 0 0 -2.9483 0 0 0 0 0 0 0 0 0 0 0 -20.9232 0 0 11.4127 0 0 0 0 0 0 0 0 -20.9232 0 0 11.4127 0 0 0 0 0 -26.6296 0 0 -15.9411 0 0 0 0 0 0 0 0 26.6296 0 0 15.9411 0 0 0 0 0 0
0 101.989 0 0 0 0 0 0 -4.9726 0 0 -3.924 0 0 -2.7687 0 0 0 0 0 0 0 0 0 0 0 -21.8795 0 0 11.9343 0 0 0 0 0 0 0 0 -21.8795 0 0 11.9343 0 0 0 0 0 -27.8466 0 0 -15.3075 0 0 0 0 0 0 0 0 27.8466 0 0 15.3075 0 0 0 0 0 0
0 101.989 0 0 0 0 0 0 -4.9726 0 0 -3.6769 0 0 -2.468 0 0 0 0 0 0 0 0 0 0 0 -21.8795 0 0 11.9343 0 0 0 0 0 0 0 0 -21.8795 0 0 11.9343 0 0 0 0 0 -27.8466 0 0 -14.005 0 0 0 0 0 0 0 0 27.8466 0 0 14.005 0 0 0 0 0 0
0 101.902 0 0 0 0 0 0 -4.7553 0 0 -3.269 0 0 -2.0594 0 0 0 0 0 0 0 0 0 0 0 -20.9232 0 0 11.4127 0 0 0 0 0 0 0 0 -20.9232 0 0 11.4127 0 0 0 0 0 -26.6296 0 0 -12.0903 0 0 0 0 0 0 0 0 26.6296 0 0 12.0903 0 0 0 0 0 0
0 101.732 0 0 0 0 0 0 -4.3301 0 0 -2.7183 0 0 -1.5609 0 0 0 0 0 0 0 0 0 0 0 -19.0526 0 0 10.3923 0 0 0 0 0 0 0 0 -19.0526 0 0 10.3923 0 0 0 0 0 -24.2487 0 0 -9.6472 0 0 0 0 0 0 0 0 24.2487 0 0 9.6472 0 0 0 0 0 0
0 101.486 0 0 0 0 0 0 -3.7157 0 0 -2.0488 0 0 -0.9941 0 0 0 0 0 0 0 0 0 0 0 -16.3492 0 0 8.9177 0 0 0 0 0 0 0 0 -16.3492 0 0 8.9177 0 0 0 0 0 -20.8081 0 0 -6.7826 0 0 0 0 0 0 0 0 20.8081 0 0 6.7826 0 0 0 0 0 0
0 101.176 0 0 0 0 0 0 -2.9389 0 0 -1.2898 0 0 -0.3839 0 0 0 0 0 0 0 0 0 0 0 -12.9313 0 0 7.0534 0 0 0 0 0 0 0 0 -12.9313 0 0 7.0534 0 0 0 0 0 -16.458 0 0 -3.6214 0 0 0 0 0 0 0 0 16.458 0 0 3.6214 0 0 0 0 0 0
0 100.814 0 0 0 0 0 0 -2.0337 0 0 -0.4744 0 0 0.2431 0 0 0 0 0 0 0 0 0 0 0 -8.9482 0 0 4.8808 0 0 0 0 0 0 0 0 -8.9482 0 0 4.8808 0 0 0 0 0 -11.3886 0 0 -0.302 0 0 0 0 0 0 0 0 11.3886 0 0 0.302 0 0 0 0 0 0
0 100.416 0 0 0 0 0 0 -1.0396 0 0 0.3617 0 0 0.8595 0 0 0 0 0 0 0 0 0 0 0 -4.5741 0 0 2.4949 0 0 0 0 0 0 0 0 -4.5741 0 0 2.4949 0 0 0 0 0 -5.8215 0 0 3.0305 0 0 0 0 0 0 0 0 5.8215 0 0 -3.0305 0 0 0 0 0 0
0 100 0 0 0 0 0 0 -0 0 0 1.1821 0 0 1.4383 0 0 0 0 0 0 0 0 0 0 0 -0 0 0 0 0 0 0 0 0 0 0 0 -0 0 0 0 0 0 0 0 0 -0 0 0 6.2307 0 0 0 0 0 0 0 0 0 0 0 -6.2307 0 0 0 0 0 0
0 100.416 0 0 0 0 0 0 1.0396 0 0 1.9508 0 0 1.9542 0 0 0 0 0 0 0 0 0 0 0 4.5741 0 0 -2.4949 0 0 0 0 0 0 0 0 4.5741 0 0 -2.4949 0 0 0 0 0 5.8215 0 0 9.1585 0 0 0 0 0 0 0 0 -5.8215 0 0 -9.1585 0 0 0 0 0 0
0 100.814 0 0 0 0 0 0 2.0337 0 0 2.6342 0 0 2.3848 0 0 0 0 0 0 0 0 0 0 0 8.9482 0 0 -4.8808 0 0 0 0 0 0 0 0 8.9482 0 0 -4.8808 0 0 0 0 0 11.3886 0 0 11.6861 0 0 0 0 0 0 0 0 -11.3886 0 0 -11.6861 0 0 0 0 0 0
0 101.176 0 0 0 0 0 0 2.9389 0 0 3.2025 0 0 2.7111 0 0 0 0 0 0 0 0 0 0 0 12.9313 0 0 -7.0534 0 0 0 0 0 0 0 0 12.9313 0 0 -7.0534 0 0 0 0 0 16.458 0 0 13.7029 0 0 0 0 0 0 0 0 -16.458 0 0 -13.7029 0 0 0 0 0 0
0 101.486 0 0 0 0 0 0 3.7157 0 0 3.6308 0 0 2.9189 0 0 0 0 0 0 0 0 0 0 0 16.3492 0 0 -8.9177 0 0 0 0 0 0 0 0 16.3492 0 0 -8.9177 0 0 0 0 0 20.8081 0 0 15.1209 0 0 0 0 0 0 0 0 -20.8081 0 0 -15.1209 0 0 0 0 0 0
0 101.732 0 0 0 0 0 0 4.3301 0 0 3.9004 0 0 2.9992 0 0 0 0 0 0 0 0 0 0 0 19.0526 0 0 -10.3923 0 0 0 0 0 0 0 0 19.0526 0 0 -10.3923 0 0 0 0 0 24.2487 0 0 15.8779 0 0 0 0 0 0 0 0 -24.2487 0 0 -15.8779 0 0 0 0 0 0
0 101.902 0 0 0 0 0 0 4.7553 0 0 3.9996 0 0 2.9483 0 0 0 0 0 0 0 0 0 0 0 20.9232 0 0 -11.4127 0 0 0 0 0 0 0 0 20.9232 0 0 -11.4127 0 0 0 0 0 26.6296 0 0 15.9411 0 0 0 0 0 0 0 0 -26.6296 0 0 -15.9411 0 0 0 0 0 0
0 101.989 0 0 0 0 0 0 4.9726 0 0 3.924 0 0 2.7687 0 0 0 0 0 0 0 0 0 0 0 21.8795 0 0 -11.9343 0 0 0 0 0 0 0 0 21.8795 0 0 -11.9343 0 0 0 0 0 27.8466 0 0 15.3075 0 0 0 0 0 0 0 0 -27.8466 0 0 -15.3075 0 0 0 0 0 0
